<svg width="27" height="23" viewBox="0 0 27 23" fill="none" xmlns="http://www.w3.org/2000/svg">
<path d="M20.4501 0.541382H7.66879C3.83439 0.541382 1.27813 2.39011 1.27813 6.7038V11.0914C1.27813 11.5475 1.76382 11.8309 2.18561 11.6461C3.43817 11.0914 4.88246 10.8819 6.40344 11.1407C9.76493 11.72 12.2317 14.7273 12.1423 18.018C12.1295 18.5356 12.0528 19.041 11.9122 19.534C11.8099 19.916 12.1295 20.2735 12.5385 20.2735H20.4501C24.2845 20.2735 26.8408 18.4247 26.8408 14.111V6.7038C26.8408 2.39011 24.2845 0.541382 20.4501 0.541382ZM14.0594 13.4825C12.2956 13.4825 10.8641 12.1021 10.8641 10.4013C10.8641 8.70043 12.2956 7.32004 14.0594 7.32004C15.8233 7.32004 17.2548 8.70043 17.2548 10.4013C17.2548 12.1021 15.8233 13.4825 14.0594 13.4825ZM23.3259 12.8662C23.3259 13.3715 22.8913 13.7906 22.3673 13.7906C21.8433 13.7906 21.4087 13.3715 21.4087 12.8662V7.93629C21.4087 7.43097 21.8433 7.01192 22.3673 7.01192C22.8913 7.01192 23.3259 7.43097 23.3259 7.93629V12.8662Z" fill="#FEE506"/>
<path d="M5.11253 12.8662C2.28786 12.8662 0 15.0724 0 17.7962C0 18.7205 0.268408 19.5956 0.741316 20.3351C1.62323 21.7648 3.24645 22.7261 5.11253 22.7261C6.9786 22.7261 8.60183 21.7648 9.48374 20.3351C9.95665 19.5956 10.2251 18.7205 10.2251 17.7962C10.2251 15.0724 7.9372 12.8662 5.11253 12.8662ZM7.63045 17.3894L4.90803 19.8174C4.72909 19.9777 4.48624 20.0639 4.25618 20.0639C4.01333 20.0639 3.77049 19.9777 3.57877 19.7928L2.31342 18.5726C1.94276 18.2152 1.94276 17.6236 2.31342 17.2662C2.68408 16.9088 3.29758 16.9088 3.66824 17.2662L4.28174 17.8578L6.32675 16.0337C6.71019 15.6886 7.32369 15.7133 7.68157 16.083C8.03945 16.4528 8.01388 17.0443 7.63045 17.3894Z" fill="#FEE506"/>
</svg>
