<svg width="33" height="34" viewBox="0 0 33 34" fill="none" xmlns="http://www.w3.org/2000/svg">
<circle cx="16.4555" cy="16.6391" r="16.1348" fill="#FFC839"/>
<circle cx="16.4555" cy="16.6391" r="10.0843" fill="#FCF9F0"/>
<path d="M13.9028 4.02095L12.9889 0.932647C15.51 -0.756467 18.6823 0.22885 19.9534 0.932647L19.1025 4.02095H13.9028Z" fill="#FF9100"/>
<path d="M19.6303 29.258L20.6151 32.2381C17.5268 33.4987 15.9512 33.1205 13.6507 32.5217L14.4316 29.3587L19.6303 29.258Z" fill="#FF9100"/>
<path d="M3.71025 19.2143L0.711612 20.1412C-0.488901 17.029 0.0555843 15.4295 0.69881 13.141L3.71025 14.0146L3.71025 19.2143Z" fill="#FF9100"/>
<path d="M29.2765 14.0994L32.2885 13.2168C33.4429 16.3463 32.8749 17.9377 32.198 20.2164L29.1997 19.2985L29.2765 14.0994Z" fill="#FF9100"/>
<path d="M23.8618 5.9993L25.3754 3.24974C28.4006 4.65495 29.1199 6.18392 30.2466 8.27709L27.4733 9.74021L23.8618 5.9993Z" fill="#FF9100"/>
<path d="M5.42746 9.69115L2.65168 8.22621C4.0034 5.17671 5.51947 4.43066 7.59248 3.26731L9.10421 6.0144L5.42746 9.69115Z" fill="#FF9100"/>
<path d="M9.55699 27.6022L8.16742 30.4734C5.07663 29.2189 4.29622 27.6768 3.06779 25.6417L5.76563 24.0437L9.55699 27.6022Z" fill="#FF9100"/>
<path d="M27.4307 23.6147L30.2268 25.0531C28.875 28.1026 27.4467 28.9319 25.3737 30.0952L23.754 27.2914L27.4307 23.6147Z" fill="#FF9100"/>
</svg>
