<svg width="26" height="26" viewBox="0 0 26 26" fill="none" xmlns="http://www.w3.org/2000/svg">
<path d="M25.9078 19.4156C25.4914 22.7723 22.7405 25.5233 19.3838 25.9397C17.3521 26.1921 15.4593 25.6368 13.9828 24.5516C13.1374 23.9333 13.3393 22.6209 14.3488 22.318C18.1471 21.1697 21.1378 18.1663 22.2988 14.368C22.6017 13.3711 23.914 13.1692 24.5324 14.002C25.605 15.4911 26.1602 17.384 25.9078 19.4156Z" fill="#FEE506"/>
<path d="M10.8533 0.80249C5.28832 0.80249 0.770699 5.32012 0.770699 10.8851C0.770699 16.4501 5.28832 20.9678 10.8533 20.9678C16.4183 20.9678 20.9359 16.4501 20.9359 10.8851C20.9233 5.32012 16.4183 0.80249 10.8533 0.80249ZM9.66713 9.47179L12.7083 10.5318C13.8062 10.923 14.3362 11.6928 14.3362 12.8789C14.3362 14.2418 13.2509 15.3649 11.9259 15.3649H11.8124V15.428C11.8124 15.9454 11.3833 16.3744 10.8659 16.3744C10.3486 16.3744 9.91951 15.9454 9.91951 15.428V15.3523C8.51879 15.2892 7.3957 14.1156 7.3957 12.6518C7.3957 12.1344 7.82475 11.7054 8.34213 11.7054C8.85951 11.7054 9.28856 12.1344 9.28856 12.6518C9.28856 13.1061 9.61665 13.472 10.0205 13.472H11.9133C12.2036 13.472 12.4307 13.207 12.4307 12.8789C12.4307 12.4373 12.355 12.412 12.0647 12.3111L9.02356 11.2511C7.93832 10.8725 7.3957 10.1027 7.3957 8.90394C7.3957 7.54108 8.48094 6.41798 9.80594 6.41798H9.91951V6.3675C9.91951 5.85012 10.3486 5.42107 10.8659 5.42107C11.3833 5.42107 11.8124 5.85012 11.8124 6.3675V6.44322C13.2131 6.50631 14.3362 7.67989 14.3362 9.1437C14.3362 9.66108 13.9071 10.0901 13.3897 10.0901C12.8724 10.0901 12.4433 9.66108 12.4433 9.1437C12.4433 8.68941 12.1152 8.32346 11.7114 8.32346H9.81856C9.52832 8.32346 9.30118 8.58846 9.30118 8.91656C9.28856 9.3456 9.36427 9.37084 9.66713 9.47179Z" fill="#FEE506"/>
</svg>
