<svg width="21" height="21" viewBox="0 0 21 21" fill="none" xmlns="http://www.w3.org/2000/svg">
<path d="M20.8532 15.441C20.5077 18.2256 18.2256 20.5078 15.441 20.8532C13.7556 21.0626 12.1853 20.602 10.9605 19.7017C10.2591 19.1887 10.4266 18.1 11.2641 17.8488C14.4151 16.8961 16.8961 14.4046 17.8592 11.2536C18.1105 10.4266 19.1992 10.2591 19.7121 10.95C20.6019 12.1853 21.0626 13.7556 20.8532 15.441Z" fill="#0D2548"/>
<path d="M8.36431 0C3.74771 0 0 3.74772 0 8.36433C0 12.9809 3.74771 16.7287 8.36431 16.7287C12.9809 16.7287 16.7286 12.9809 16.7286 8.36433C16.7181 3.74772 12.9809 0 8.36431 0ZM7.38027 7.19185L9.90317 8.07121C10.8139 8.39573 11.2536 9.03431 11.2536 10.0183C11.2536 11.1489 10.3533 12.0806 9.25413 12.0806H9.15991V12.133C9.15991 12.5622 8.80398 12.9181 8.37478 12.9181C7.94557 12.9181 7.58964 12.5622 7.58964 12.133V12.0702C6.42764 12.0178 5.49595 11.0443 5.49595 9.82992C5.49595 9.40071 5.85188 9.04478 6.28108 9.04478C6.71029 9.04478 7.06622 9.40071 7.06622 9.82992C7.06622 10.2068 7.3384 10.5104 7.67339 10.5104H9.24366C9.48444 10.5104 9.67287 10.2905 9.67287 10.0183C9.67287 9.65195 9.61006 9.63101 9.36928 9.54727L6.84638 8.66791C5.94609 8.35386 5.49595 7.71528 5.49595 6.72077C5.49595 5.59018 6.39624 4.65848 7.49543 4.65848H7.58964V4.61661C7.58964 4.1874 7.94557 3.83147 8.37478 3.83147C8.80398 3.83147 9.15991 4.1874 9.15991 4.61661V4.67942C10.3219 4.73176 11.2536 5.70533 11.2536 6.91967C11.2536 7.34888 10.8977 7.70481 10.4685 7.70481C10.0393 7.70481 9.68334 7.34888 9.68334 6.91967C9.68334 6.54281 9.41116 6.23922 9.07616 6.23922H7.50589C7.26512 6.23922 7.07669 6.45906 7.07669 6.73124C7.06622 7.08717 7.12903 7.10811 7.38027 7.19185Z" fill="#0D2548"/>
</svg>
