<svg width="19" height="16" viewBox="0 0 19 16" fill="none" xmlns="http://www.w3.org/2000/svg">
<g clip-path="url(#clip0_4_211)">
<path d="M17 6.30206C17 5.92081 16.8468 5.55518 16.574 5.2856C16.3012 5.01601 15.9312 4.86456 15.5455 4.86456H10.9491L11.6473 1.57988C11.6618 1.508 11.6691 1.42894 11.6691 1.34988C11.6691 1.05519 11.5455 0.782063 11.3491 0.588L10.5782 -0.166687L5.79273 4.56269C5.52364 4.82863 5.36364 5.188 5.36364 5.58331V12.7708C5.36364 13.1521 5.51688 13.5177 5.78966 13.7873C6.06244 14.0569 6.43241 14.2083 6.81818 14.2083H13.3636C13.9673 14.2083 14.4836 13.8489 14.7018 13.3314L16.8982 8.26425C16.9636 8.09894 17 7.92644 17 7.73956V6.30206ZM1 14.2083H3.90909V5.58331H1V14.2083Z" fill="#F8F8F8"/>
</g>
<defs>
<clipPath id="clip0_4_211">
<rect width="19" height="16" fill="white"/>
</clipPath>
</defs>
</svg>
