<svg width="26" height="26" viewBox="0 0 26 26" fill="none" xmlns="http://www.w3.org/2000/svg">
<path d="M5.00318 16.0986C3.74604 16.0986 2.58751 16.5793 1.71245 17.3681C1.51525 17.5406 1.33038 17.7255 1.17015 17.935C0.479962 18.7854 0.0732422 19.8577 0.0732422 21.0285C0.0732422 23.7523 2.29171 25.9585 5.00318 25.9585C6.18636 25.9585 7.25862 25.5394 8.10904 24.8616C8.79923 24.2823 9.34152 23.5305 9.63732 22.6677C9.83452 22.1624 9.93312 21.6078 9.93312 21.0285C9.93312 18.3171 7.72697 16.0986 5.00318 16.0986ZM7.96114 20.0795C7.96114 20.4246 7.68999 20.6834 7.35722 20.6834C7.02445 20.6834 6.75331 20.4246 6.75331 20.0795V19.9563C6.75331 19.8207 6.65471 19.7098 6.51913 19.7098H4.05417C4.17741 19.944 4.15277 20.2274 3.95557 20.4246C3.84464 20.5356 3.69675 20.5972 3.5242 20.5972C3.3763 20.5972 3.21608 20.5356 3.10515 20.4246L2.21776 19.5372C2.16847 19.4879 2.11917 19.414 2.08219 19.34C2.03289 19.1921 2.03289 19.0319 2.08219 18.884C2.11917 18.8224 2.15614 18.7361 2.21776 18.6868L3.10515 17.8118C3.33933 17.5653 3.7214 17.5653 3.94324 17.8118C4.14044 17.9966 4.16509 18.2924 4.04184 18.5143H6.51913C7.30792 18.5143 7.94882 19.1552 7.94882 19.9563V20.0795H7.96114ZM6.48216 24.4302C6.32194 24.4302 6.16171 24.3809 6.05079 24.2577C5.85359 24.0728 5.82894 23.777 5.95219 23.5551H3.4749C2.68611 23.5551 2.04522 22.9142 2.04522 22.1131V21.9899C2.04522 21.6448 2.31636 21.386 2.64913 21.386C2.9819 21.386 3.25305 21.6448 3.25305 21.9899V22.1131C3.25305 22.2487 3.35165 22.3596 3.48722 22.3596H5.96452C5.84127 22.1255 5.86592 21.842 6.06312 21.6448C6.29729 21.4106 6.67936 21.4106 6.9012 21.6448L7.78859 22.5322C7.83789 22.5815 7.88719 22.6554 7.92417 22.7294C7.97347 22.8773 7.97347 23.0375 7.92417 23.1854C7.88719 23.247 7.83789 23.321 7.78859 23.3703L6.9012 24.2453C6.79028 24.3686 6.63006 24.4302 6.48216 24.4302Z" fill="#FEE506"/>
<path d="M17.1431 2.47966V7.1631H15.2944V2.47966C15.2944 2.14689 14.9986 1.98667 14.8014 1.98667C14.7398 1.98667 14.6782 1.99899 14.6166 2.02364L4.84296 5.70877C4.18974 5.95527 3.77069 6.57151 3.77069 7.27402V8.09979C2.64913 8.93788 1.92197 10.2813 1.92197 11.7972V7.27402C1.92197 5.80737 2.82168 4.50093 4.18974 3.98329L13.9757 0.285838C14.2468 0.187239 14.5303 0.137939 14.8014 0.137939C16.0339 0.137939 17.1431 1.13625 17.1431 2.47966Z" fill="#FEE506"/>
<path d="M25.3392 15.4824V16.7149C25.3392 17.0476 25.0803 17.3188 24.7353 17.3311H22.9358C22.2826 17.3311 21.691 16.8504 21.6417 16.2095C21.6047 15.8275 21.7526 15.47 21.9991 15.2235C22.221 14.9894 22.5291 14.8661 22.8619 14.8661H24.7229C25.0803 14.8785 25.3392 15.1496 25.3392 15.4824Z" fill="#FEE506"/>
<path d="M22.8495 13.572H24.1067C24.7845 13.572 25.3392 13.0174 25.3392 12.3395V11.7972C25.3392 9.246 23.2563 7.1631 20.705 7.1631H6.55611C5.5085 7.1631 4.54716 7.5082 3.77069 8.09979C2.64913 8.93788 1.92197 10.2813 1.92197 11.7972V13.9911C1.92197 14.4594 2.41496 14.7552 2.85866 14.6073C3.54885 14.3731 4.27601 14.2499 5.00318 14.2499C8.73761 14.2499 11.7818 17.2941 11.7818 21.0285C11.7818 21.9159 11.5477 22.8896 11.1779 23.7523C10.9807 24.196 11.2888 24.726 11.7695 24.726H20.705C23.2563 24.726 25.3392 22.6431 25.3392 20.0919V19.8577C25.3392 19.1798 24.7845 18.6252 24.1067 18.6252H23.0344C21.8512 18.6252 20.7174 17.898 20.4092 16.7518C20.1627 15.8151 20.4585 14.9031 21.0748 14.3115C21.5308 13.8432 22.1594 13.572 22.8495 13.572ZM16.0955 13.3255H9.93312C9.4278 13.3255 9.00875 12.9065 9.00875 12.4012C9.00875 11.8958 9.4278 11.4768 9.93312 11.4768H16.0955C16.6009 11.4768 17.0199 11.8958 17.0199 12.4012C17.0199 12.9065 16.6009 13.3255 16.0955 13.3255Z" fill="#FEE506"/>
</svg>
