<svg width="24" height="16" viewBox="0 0 24 16" fill="none" xmlns="http://www.w3.org/2000/svg">
<path d="M23.3933 14.3785C23.3933 14.6092 23.3017 14.8305 23.1385 14.9937C22.9753 15.1568 22.754 15.2485 22.5233 15.2485H0.869999C0.639261 15.2485 0.417973 15.1568 0.254817 14.9937C0.0916604 14.8305 0 14.6092 0 14.3785L0 1.36072C0 1.12998 0.0916604 0.908696 0.254817 0.74554C0.417973 0.582383 0.639261 0.490723 0.869999 0.490723L22.5233 0.490723C22.754 0.490723 22.9753 0.582383 23.1385 0.74554C23.3017 0.908696 23.3933 1.12998 23.3933 1.36072V14.3785Z" fill="#1A1F71"/>
<path d="M8.89332 4.77623L6.28332 10.9951H4.57554L3.28666 6.0329C3.27241 5.91678 3.22965 5.80598 3.16218 5.7104C3.09471 5.61482 3.00464 5.53743 2.89999 5.48512C2.398 5.24622 1.86734 5.07294 1.3211 4.96957L1.35332 4.77623H4.09221C4.27311 4.77469 4.44833 4.83936 4.58484 4.95807C4.72135 5.07678 4.80973 5.24131 4.83332 5.42068L5.50999 9.02956L7.18554 4.80845H8.89332V4.77623ZM15.5633 8.96512C15.5633 7.32178 13.3078 7.22512 13.3078 6.51623C13.3078 6.29068 13.5333 6.06512 13.9844 6.00068C14.5277 5.94136 15.0765 6.04216 15.5633 6.29067L15.8533 4.96957C15.3689 4.7867 14.8566 4.6886 14.3389 4.67957C12.76 4.67957 11.6322 5.51734 11.6322 6.74179C11.6322 7.64401 12.4378 8.12734 13.05 8.41734C13.6622 8.70734 13.8878 8.90067 13.8878 9.19067C13.8878 9.60956 13.4044 9.80289 12.9211 9.80289C12.3503 9.80698 11.7868 9.6744 11.2778 9.41623L10.9878 10.7696C11.5539 10.9842 12.1545 11.0934 12.76 11.0918C14.4355 11.0918 15.5311 10.254 15.5633 8.96512ZM19.7522 10.9951H21.2344L19.9455 4.77623H18.56C18.4145 4.7729 18.2716 4.8144 18.1505 4.8951C18.0295 4.97581 17.9362 5.0918 17.8833 5.22734L15.4666 10.9951H17.1422L17.4644 10.0607H19.5266L19.7522 10.9951ZM17.9478 8.80401L18.7855 6.48401L19.2689 8.80401H17.9478ZM11.1811 4.77623L9.85998 10.9951H8.24887L9.56998 4.77623H11.1811Z" fill="white"/>
</svg>
